<svg width="18" height="18" viewBox="0 0 18 18" fill="none" xmlns="http://www.w3.org/2000/svg">
<path opacity="0.2" d="M9 15.75C12.7279 15.75 15.75 12.7279 15.75 9C15.75 5.27208 12.7279 2.25 9 2.25C5.27208 2.25 2.25 5.27208 2.25 9C2.25 12.7279 5.27208 15.75 9 15.75Z" fill="#5271FF"/>
<path fill-rule="evenodd" clip-rule="evenodd" d="M9 2.8125C5.58274 2.8125 2.8125 5.58274 2.8125 9C2.8125 12.4173 5.58274 15.1875 9 15.1875C12.4173 15.1875 15.1875 12.4173 15.1875 9C15.1875 5.58274 12.4173 2.8125 9 2.8125ZM1.6875 9C1.6875 4.96142 4.96142 1.6875 9 1.6875C13.0386 1.6875 16.3125 4.96142 16.3125 9C16.3125 13.0386 13.0386 16.3125 9 16.3125C4.96142 16.3125 1.6875 13.0386 1.6875 9Z" fill="#5271FF"/>
<path fill-rule="evenodd" clip-rule="evenodd" d="M9 5.0625C9.31066 5.0625 9.5625 5.31434 9.5625 5.625V9.5625C9.5625 9.87316 9.31066 10.125 9 10.125C8.68934 10.125 8.4375 9.87316 8.4375 9.5625V5.625C8.4375 5.31434 8.68934 5.0625 9 5.0625Z" fill="#5271FF"/>
<path d="M9 12.9375C9.46599 12.9375 9.84375 12.5597 9.84375 12.0938C9.84375 11.6278 9.46599 11.25 9 11.25C8.53401 11.25 8.15625 11.6278 8.15625 12.0938C8.15625 12.5597 8.53401 12.9375 9 12.9375Z" fill="#5271FF"/>
</svg>
